<svg xmlns="http://www.w3.org/2000/svg" viewBox="0 0 200 220">
  <!-- Top bun -->
  <ellipse cx="100" cy="50" rx="60" ry="35" fill="#D4A574"/>
  <path d="M 40 50 Q 40 20 100 20 Q 160 20 160 50" fill="#C9915F" stroke="none"/>

  <!-- Sesame seeds -->
  <circle cx="70" cy="35" r="3" fill="#F5DEB3"/>
  <circle cx="90" cy="28" r="3" fill="#F5DEB3"/>
  <circle cx="110" cy="32" r="3" fill="#F5DEB3"/>
  <circle cx="130" cy="38" r="3" fill="#F5DEB3"/>
  <circle cx="80" cy="42" r="2.5" fill="#F5DEB3"/>
  <circle cx="120" cy="43" r="2.5" fill="#F5DEB3"/>

  <!-- Lettuce -->
  <path d="M 40 85 Q 50 75 100 75 Q 150 75 160 85 L 155 95 Q 100 90 45 95 Z" fill="#7CB342"/>

  <!-- Cheese -->
  <rect x="45" y="95" width="110" height="15" rx="2" fill="#FDD835"/>

  <!-- Patty -->
  <rect x="40" y="110" width="120" height="25" rx="3" fill="#8B4513"/>
  <circle cx="60" cy="120" r="4" fill="#654321"/>
  <circle cx="85" cy="125" r="3" fill="#654321"/>
  <circle cx="110" cy="122" r="4" fill="#654321"/>
  <circle cx="135" cy="124" r="3" fill="#654321"/>

  <!-- Tomato -->
  <ellipse cx="70" cy="140" rx="12" ry="10" fill="#E53935"/>
  <ellipse cx="130" cy="138" rx="13" ry="11" fill="#E53935"/>

  <!-- Bottom bun -->
  <ellipse cx="100" cy="170" rx="60" ry="35" fill="#D4A574"/>
  <path d="M 40 170 Q 40 200 100 200 Q 160 200 160 170" fill="#C9915F" stroke="none"/>
</svg>
